<?xml version="1.0" encoding="UTF-8" standalone="no"?>
<!DOCTYPE svg PUBLIC "-//W3C//DTD SVG 1.1//EN" "http://www.w3.org/Graphics/SVG/1.1/DTD/svg11.dtd">
<!-- Generated by graphviz version 2.40.1 (20161225.0304)
 -->
<!-- Title: %0 Pages: 1 -->
<svg width="604pt" height="260pt" viewBox="0.00 0.00 604.49 260.00" xmlns="http://www.w3.org/2000/svg" xmlns:xlink="http://www.w3.org/1999/xlink">
<g id="graph0" class="graph" transform="scale(1 1) rotate(0) translate(4 256)">
<title>%0</title>
<polygon fill="#ffffff" stroke="transparent" points="-4,4 -4,-256 600.4894,-256 600.4894,4 -4,4"/>
<!-- [root] azurerm_resource_group.t&#45;resource&#45;group (expand) -->
<g id="node1" class="node">
<title>[root] azurerm_resource_group.t-resource-group (expand)</title>
<polygon fill="none" stroke="#000000" points="424.4527,-108 172.0367,-108 172.0367,-72 424.4527,-72 424.4527,-108"/>
<text text-anchor="middle" x="298.2447" y="-85.8" font-family="Times,serif" font-size="14.00" fill="#000000">azurerm_resource_group.t-resource-group</text>
</g>
<!-- [root] provider[&quot;registry.terraform.io/hashicorp/azurerm&quot;] -->
<g id="node2" class="node">
<title>[root] provider["registry.terraform.io/hashicorp/azurerm"]</title>
<polygon fill="none" stroke="#000000" points="298.2447,-36 -.2449,-18 298.2447,0 596.7343,-18 298.2447,-36"/>
<text text-anchor="middle" x="298.2447" y="-13.8" font-family="Times,serif" font-size="14.00" fill="#000000">provider["registry.terraform.io/hashicorp/azurerm"]</text>
</g>
<!-- [root] azurerm_resource_group.t&#45;resource&#45;group (expand)&#45;&gt;[root] provider[&quot;registry.terraform.io/hashicorp/azurerm&quot;] -->
<g id="edge1" class="edge">
<title>[root] azurerm_resource_group.t-resource-group (expand)-&gt;[root] provider["registry.terraform.io/hashicorp/azurerm"]</title>
<path fill="none" stroke="#000000" d="M298.2447,-71.8314C298.2447,-64.131 298.2447,-54.9743 298.2447,-46.4166"/>
<polygon fill="#000000" stroke="#000000" points="301.7448,-46.4132 298.2447,-36.4133 294.7448,-46.4133 301.7448,-46.4132"/>
</g>
<!-- [root] provider[&quot;registry.terraform.io/hashicorp/azurerm&quot;] (close) -->
<g id="node3" class="node">
<title>[root] provider["registry.terraform.io/hashicorp/azurerm"] (close)</title>
<ellipse fill="none" stroke="#000000" cx="298.2447" cy="-162" rx="263.9501" ry="18"/>
<text text-anchor="middle" x="298.2447" y="-157.8" font-family="Times,serif" font-size="14.00" fill="#000000">[root] provider["registry.terraform.io/hashicorp/azurerm"] (close)</text>
</g>
<!-- [root] provider[&quot;registry.terraform.io/hashicorp/azurerm&quot;] (close)&#45;&gt;[root] azurerm_resource_group.t&#45;resource&#45;group (expand) -->
<g id="edge2" class="edge">
<title>[root] provider["registry.terraform.io/hashicorp/azurerm"] (close)-&gt;[root] azurerm_resource_group.t-resource-group (expand)</title>
<path fill="none" stroke="#000000" d="M298.2447,-143.8314C298.2447,-136.131 298.2447,-126.9743 298.2447,-118.4166"/>
<polygon fill="#000000" stroke="#000000" points="301.7448,-118.4132 298.2447,-108.4133 294.7448,-118.4133 301.7448,-118.4132"/>
</g>
<!-- [root] root -->
<g id="node4" class="node">
<title>[root] root</title>
<ellipse fill="none" stroke="#000000" cx="298.2447" cy="-234" rx="50.9823" ry="18"/>
<text text-anchor="middle" x="298.2447" y="-229.8" font-family="Times,serif" font-size="14.00" fill="#000000">[root] root</text>
</g>
<!-- [root] root&#45;&gt;[root] provider[&quot;registry.terraform.io/hashicorp/azurerm&quot;] (close) -->
<g id="edge3" class="edge">
<title>[root] root-&gt;[root] provider["registry.terraform.io/hashicorp/azurerm"] (close)</title>
<path fill="none" stroke="#000000" d="M298.2447,-215.8314C298.2447,-208.131 298.2447,-198.9743 298.2447,-190.4166"/>
<polygon fill="#000000" stroke="#000000" points="301.7448,-190.4132 298.2447,-180.4133 294.7448-190.4133 301.7448,-190.4132"/>
</g>
</g>
</svg>
